<svg version="1.1" viewBox="0 0 300 300" xmlns="http://www.w3.org/2000/svg">
 <path d="m124.07 297.95c-20.096-3.5542-38.734-10.87-55.757-21.886-17.595-11.386-33.614-27.557-44.857-45.282-15.442-24.345-23.444-51.794-23.451-80.441-0.007775-31.844 9.5893-61.854 28.002-87.561 7.1983-10.05 16.461-19.979 26.165-28.047 18.158-15.098 40.104-25.891 62.939-30.957 5.156-1.1437 13.206-2.4878 13.448-2.2455 0.0936 0.09361-0.19349 0.99256-0.638 1.9977-2.2466 5.0799-3.9099 11.061-5.1092 18.372-0.63809 3.8897-0.67668 5.8308-0.89675 45.096-0.22851 40.772-0.23451 41.052-0.9496 44.263-1.5476 6.9502-4.2144 10.849-9.0921 13.292-4.2152 2.1113-6.8678 2.5033-18.508 2.7346l-10.217 0.20304-0.1668 43.552 9.9763 0.16436c11.557 0.1904 14.3 0.59966 18.734 2.7952 5.289 2.6187 8.0048 6.7176 9.4782 14.306 0.47274 2.4346 0.55932 7.5181 0.74027 43.464 0.19845 39.423 0.22667 40.842 0.89427 44.981 1.1957 7.4126 3.1144 14.074 5.6122 19.486l1.2351 2.676-1.1954-0.0228c-0.65747-0.0125-3.5308-0.43585-6.3852-0.94067zm72.981-14.176c-4.7863-0.5973-10.029-2.6306-12.493-4.8454-2.8079-2.524-4.674-6.1918-5.9224-11.64-0.64586-2.8188-0.67635-4.1412-0.88605-38.437-0.22938-37.515-0.20991-37.028-1.777-44.428-0.76556-3.6151-2.5957-8.834-4.1364-11.795-4.676-8.9878-13.327-16.073-24.752-20.269l-2.5803-0.94786-0.1896-4.2044 2.5275-0.88854c15.226-5.3526 24.885-15.541 28.613-30.182 2.1387-8.3987 2.2955-11.567 2.2961-46.383 3.2e-4 -18.19 0.13439-32.226 0.32725-34.259 0.87822-9.2609 3.8911-14.873 9.5937-17.869 4.6002-2.4173 9.2563-3.1676 19.682-3.1718l6.7359-0.0027 3.6436 1.8242c32.685 16.364 58.939 45.409 72.238 79.914 20.074 52.084 9.5307 111.28-27.24 152.94-11.964 13.554-25.508 24.354-41.447 33.049l-3.3362 1.8199-9.9625-0.0486c-5.4794-0.0267-10.4-0.10324-10.936-0.17003zm15.663-90.625c7.5585-0.83407 14.309-4.7229 21.977-12.66 4.6674-4.8314 9.8263-11.746 14.07-18.859l0.72474-1.2147-0.91742-0.34914c-4.8736-1.8548-14.757-4.3233-20.866-5.2116-6.2804-0.9133-14.186-0.74997-17.678 0.36521-8.5015 2.7152-17.565 10.527-25.976 22.388-3.0361 4.2815-6.0101 9.1717-5.7355 9.4309 0.41485 0.39155 8.2933 2.8104 12.508 3.8401 9.0541 2.2122 15.944 2.9268 21.893 2.2704z" stroke-width=".32436"/>
</svg>
